<mxfile host="app.diagrams.net" modified="2023-05-08T01:55:22.966Z" agent="Mozilla/5.0 (Macintosh; Intel Mac OS X 10_15_7) AppleWebKit/537.36 (KHTML, like Gecko) Chrome/112.0.0.0 Safari/537.36" etag="C5uMk9UM3F4p-0H8Cpsd" version="21.2.9" type="device">
  <diagram name="Page-1" id="uHLK6IgQac7tAxWw177A">
    <mxGraphModel dx="985" dy="688" grid="1" gridSize="10" guides="1" tooltips="1" connect="1" arrows="1" fold="1" page="1" pageScale="1" pageWidth="850" pageHeight="1100" math="0" shadow="0">
      <root>
        <mxCell id="0" />
        <mxCell id="1" parent="0" />
        <mxCell id="i_yvdXzV-tHUbIvPh26k-4" value="" style="rounded=0;whiteSpace=wrap;html=1;" parent="1" vertex="1">
          <mxGeometry x="20" y="90" width="170" height="310" as="geometry" />
        </mxCell>
        <mxCell id="i_yvdXzV-tHUbIvPh26k-5" value="" style="rounded=0;whiteSpace=wrap;html=1;" parent="1" vertex="1">
          <mxGeometry x="190" y="90" width="190" height="150" as="geometry" />
        </mxCell>
        <mxCell id="i_yvdXzV-tHUbIvPh26k-6" value="" style="rounded=0;whiteSpace=wrap;html=1;" parent="1" vertex="1">
          <mxGeometry x="190" y="230" width="190" height="170" as="geometry" />
        </mxCell>
        <mxCell id="i_yvdXzV-tHUbIvPh26k-7" value="" style="rounded=0;whiteSpace=wrap;html=1;" parent="1" vertex="1">
          <mxGeometry x="380" y="90" width="160" height="310" as="geometry" />
        </mxCell>
        <mxCell id="i_yvdXzV-tHUbIvPh26k-10" value="" style="rounded=0;whiteSpace=wrap;html=1;" parent="1" vertex="1">
          <mxGeometry x="540" y="90" width="210" height="150" as="geometry" />
        </mxCell>
        <mxCell id="i_yvdXzV-tHUbIvPh26k-11" value="" style="rounded=0;whiteSpace=wrap;html=1;" parent="1" vertex="1">
          <mxGeometry x="540" y="240" width="210" height="160" as="geometry" />
        </mxCell>
        <mxCell id="i_yvdXzV-tHUbIvPh26k-13" value="" style="rounded=0;whiteSpace=wrap;html=1;" parent="1" vertex="1">
          <mxGeometry x="750" y="90" width="150" height="310" as="geometry" />
        </mxCell>
        <mxCell id="i_yvdXzV-tHUbIvPh26k-14" value="" style="rounded=0;whiteSpace=wrap;html=1;" parent="1" vertex="1">
          <mxGeometry x="20" y="400" width="440" height="140" as="geometry" />
        </mxCell>
        <mxCell id="i_yvdXzV-tHUbIvPh26k-15" value="" style="rounded=0;whiteSpace=wrap;html=1;" parent="1" vertex="1">
          <mxGeometry x="460" y="400" width="440" height="140" as="geometry" />
        </mxCell>
        <mxCell id="i_yvdXzV-tHUbIvPh26k-16" value="&lt;h1 style=&quot;line-height: 60%;&quot;&gt;&lt;font style=&quot;font-size: 21px;&quot;&gt;Solution&lt;/font&gt;&lt;/h1&gt;&lt;p&gt;1. Time flexibility&amp;nbsp;&lt;/p&gt;&lt;p&gt;2. Personalization&lt;/p&gt;&lt;p&gt;3.&amp;nbsp;Average subscription cost is about $68(which includes the internet cost and electricity cost)&lt;/p&gt;&lt;span style=&quot;caret-color: rgb(0, 0, 0); text-size-adjust: auto;&quot; id=&quot;docs-internal-guid-1651fa95-7fff-1ce4-ad14-be645055d8fa&quot;&gt;&lt;/span&gt;&lt;p&gt;&lt;br&gt;&lt;/p&gt;" style="text;html=1;strokeColor=none;fillColor=none;spacing=5;spacingTop=-20;whiteSpace=wrap;overflow=hidden;rounded=0;" parent="1" vertex="1">
          <mxGeometry x="190" y="92.5" width="190" height="137.5" as="geometry" />
        </mxCell>
        <mxCell id="i_yvdXzV-tHUbIvPh26k-17" value="&lt;h1 style=&quot;line-height: 50%;&quot;&gt;&lt;font style=&quot;font-size: 21px;&quot;&gt;Key Metrics&lt;/font&gt;&lt;/h1&gt;&lt;p style=&quot;line-height: 110%;&quot;&gt;1. Customer satisfaction and loyalty: Theory of Mind with respect to movies&lt;/p&gt;&lt;p style=&quot;line-height: 120%;&quot;&gt;2. Online streaming platform Revenue and profit margins: steady upwards $150B revenue generation since 2017&lt;/p&gt;" style="text;html=1;strokeColor=none;fillColor=none;spacing=5;spacingTop=-20;whiteSpace=wrap;overflow=hidden;rounded=0;" parent="1" vertex="1">
          <mxGeometry x="190" y="230" width="190" height="150" as="geometry" />
        </mxCell>
        <mxCell id="i_yvdXzV-tHUbIvPh26k-18" value="&lt;h1&gt;&lt;font style=&quot;font-size: 21px;&quot;&gt;Unique value Preposition&lt;/font&gt;&lt;/h1&gt;&lt;p&gt;Comfort,&amp;nbsp;&lt;span style=&quot;background-color: initial;&quot;&gt;portability,&amp;nbsp;&lt;/span&gt;&lt;span style=&quot;background-color: initial;&quot;&gt;no time constraint,&amp;nbsp;&lt;/span&gt;&lt;span style=&quot;background-color: initial;&quot;&gt;available at leisure and&amp;nbsp;&lt;/span&gt;&lt;span style=&quot;background-color: initial;&quot;&gt;personalization&amp;nbsp;of content&lt;/span&gt;&lt;/p&gt;" style="text;html=1;strokeColor=none;fillColor=none;spacing=5;spacingTop=-20;whiteSpace=wrap;overflow=hidden;rounded=0;" parent="1" vertex="1">
          <mxGeometry x="380" y="92.5" width="160" height="307.5" as="geometry" />
        </mxCell>
        <mxCell id="i_yvdXzV-tHUbIvPh26k-19" value="&lt;h1&gt;&lt;font style=&quot;font-size: 21px;&quot;&gt;Customer Segments&lt;/font&gt;&lt;/h1&gt;&lt;p&gt;All the people with the access to internet and who intend to watch a movie&lt;/p&gt;" style="text;html=1;strokeColor=none;fillColor=none;spacing=5;spacingTop=-20;whiteSpace=wrap;overflow=hidden;rounded=0;" parent="1" vertex="1">
          <mxGeometry x="750" y="115" width="130" height="210" as="geometry" />
        </mxCell>
        <mxCell id="i_yvdXzV-tHUbIvPh26k-20" value="&lt;h1 style=&quot;line-height: 60%;&quot;&gt;&lt;font style=&quot;font-size: 21px;&quot;&gt;Channels&lt;/font&gt;&lt;/h1&gt;&lt;p&gt;Online Streaming platforms are easily available on IOS and android devices,&amp;nbsp; Smart TV apps(Samsung), Connected devices(Chromecast and Roku). These platforms have partnership with film studios and strategic alliances with telecommunications providers&amp;nbsp;&lt;/p&gt;" style="text;html=1;strokeColor=none;fillColor=none;spacing=5;spacingTop=-20;whiteSpace=wrap;overflow=hidden;rounded=0;" parent="1" vertex="1">
          <mxGeometry x="540" y="240" width="210" height="160" as="geometry" />
        </mxCell>
        <mxCell id="i_yvdXzV-tHUbIvPh26k-22" value="&lt;h1 style=&quot;line-height: 80%;&quot;&gt;&lt;font style=&quot;font-size: 21px;&quot;&gt;Cost Structure&lt;/font&gt;&lt;/h1&gt;&lt;p&gt;1.Costs for establishing the infrastructure of an online streaming platform include expenses for servers, content delivery networks (CDNs), data storage, and bandwidth usage.&amp;nbsp;&lt;/p&gt;&lt;p&gt;2. The average cost incurred by the user is about $68 subscription fee(which includes electricity cost and internet cost)&lt;/p&gt;&lt;p&gt;&lt;br&gt;&lt;/p&gt;" style="text;html=1;strokeColor=none;fillColor=none;spacing=5;spacingTop=-20;whiteSpace=wrap;overflow=hidden;rounded=0;" parent="1" vertex="1">
          <mxGeometry x="20" y="400" width="450" height="150" as="geometry" />
        </mxCell>
        <mxCell id="i_yvdXzV-tHUbIvPh26k-23" value="&lt;h1&gt;&lt;font style=&quot;font-size: 21px;&quot;&gt;Revenue Streams&lt;/font&gt;&lt;/h1&gt;&lt;p&gt;Online streaming platforms generate the revenue from subscription fees, advertisements, content license and deals(exclusively available on that platform)&lt;/p&gt;" style="text;html=1;strokeColor=none;fillColor=none;spacing=5;spacingTop=-20;whiteSpace=wrap;overflow=hidden;rounded=0;" parent="1" vertex="1">
          <mxGeometry x="470" y="410" width="420" height="95" as="geometry" />
        </mxCell>
        <mxCell id="i_yvdXzV-tHUbIvPh26k-24" value="&lt;h1&gt;&lt;font style=&quot;font-size: 21px;&quot;&gt;Problem&lt;/font&gt;&lt;/h1&gt;&lt;p&gt;1. The traditional movie theater have rigid schedule&lt;/p&gt;&lt;p&gt;2. Movie theaters often lack the option for customization of movie genres, which means audiences have to wait for specific genres of movies to be released. while Online streaming platforms do not&amp;nbsp;&lt;/p&gt;&lt;p&gt;3. Average cost incurred by a family on movie tickets is about $80&lt;/p&gt;" style="text;html=1;strokeColor=none;fillColor=none;spacing=5;spacingTop=-20;whiteSpace=wrap;overflow=hidden;rounded=0;" parent="1" vertex="1">
          <mxGeometry x="20" y="90" width="170" height="310" as="geometry" />
        </mxCell>
        <mxCell id="i_yvdXzV-tHUbIvPh26k-28" value="&lt;h1 style=&quot;border-color: var(--border-color);&quot;&gt;&lt;font style=&quot;border-color: var(--border-color); font-size: 21px;&quot;&gt;Unfair Advantage&lt;/font&gt;&lt;/h1&gt;&lt;h1&gt;&lt;p style=&quot;border-color: var(--border-color); font-size: 12px; font-weight: 400;&quot;&gt;Exclusive content,&amp;nbsp;&lt;span style=&quot;border-color: var(--border-color); background-color: initial;&quot;&gt;Data-driven insights&lt;/span&gt;&lt;span style=&quot;border-color: var(--border-color); background-color: initial;&quot;&gt;,&amp;nbsp;&lt;/span&gt;&lt;span style=&quot;border-color: var(--border-color); background-color: initial;&quot;&gt;Global reach,&amp;nbsp;&lt;/span&gt;&lt;span style=&quot;border-color: var(--border-color); background-color: initial;&quot;&gt;Brand recognition,&amp;nbsp;&lt;/span&gt;&lt;span style=&quot;border-color: var(--border-color); background-color: initial;&quot;&gt;These unfair advantages can help the Online Streaming platforms business to gain a competitive edge and succeed in the market.&lt;/span&gt;&lt;/p&gt;&lt;/h1&gt;" style="text;html=1;strokeColor=none;fillColor=none;spacing=5;spacingTop=-20;whiteSpace=wrap;overflow=hidden;rounded=0;" parent="1" vertex="1">
          <mxGeometry x="540" y="90" width="210" height="147.5" as="geometry" />
        </mxCell>
      </root>
    </mxGraphModel>
  </diagram>
</mxfile>
